# xmcd CD database file
#
# Track frame offsets:
#	150
#	16445
#	34335
#	49530
#	66332
#	81757
#	93712
#	113115
#	127917
#	152705
#	167417
#	187322
#
# Disc length: 2645 seconds
#
# Revision: 0
# Processed by: cddbd v1.4PL0 Copyright (c) Steve Scherf et al.
# Submitted via: CDex 1.50Beta3
#
DISCID=9d0a530c
DTITLE=Fortin-Léveillé - Avenida Café
DYEAR=1900
DGENRE=Jazz
TTITLE0=Étoile du Sud
TTITLE1=Sonde de Venise
TTITLE2=Sérénade
TTITLE3=Cùmplicidade
TTITLE4=Perpétuelle
TTITLE5=Dans les Cantons
TTITLE6=Bèbé
TTITLE7=Une pour tous
TTITLE8=Tango fuego
TTITLE9=Antomnale
TTITLE10=Introuvable
TTITLE11=Guit'boys
EXTD=
EXTT0=
EXTT1=
EXTT2=
EXTT3=
EXTT4=
EXTT5=
EXTT6=
EXTT7=
EXTT8=
EXTT9=
EXTT10=
EXTT11=
PLAYORDER=
